<?xml version="1.0" encoding="utf-8"?>
<!-- Generator: Adobe Illustrator 23.0.6, SVG Export Plug-In . SVG Version: 6.00 Build 0)  -->
<svg version="1.1" id="Layer_1" xmlns="http://www.w3.org/2000/svg" xmlns:xlink="http://www.w3.org/1999/xlink" x="0px" y="0px"
	 viewBox="0 0 551 516" style="enable-background:new 0 0 551 516;" xml:space="preserve">
<style type="text/css">
	.st0{fill:#FFFFFF;}
</style>
<path class="st0" d="M190.7,183c0-48.7-39.5-88.2-88.2-88.2S14.3,134.3,14.3,183c0,48.7,39.5,88.2,88.2,88.2S190.7,231.7,190.7,183"
	/>
<path class="st0" d="M102.5,271.2c-48.7,0-88.2,39.5-88.2,88.2s39.5,88.2,88.2,88.2c48.7,0,88.2-39.5,88.2-88.2
	S151.2,271.2,102.5,271.2"/>
<path class="st0" d="M367.2,183c0-48.7-39.5-88.2-88.2-88.2c-48.7,0-88.2,39.5-88.2,88.2h88.2v88.2
	C327.7,271.2,367.2,231.7,367.2,183"/>
<path class="st0" d="M190.7,359.5c0,48.7,39.5,88.2,88.2,88.2s88.2-39.5,88.2-88.2s-39.5-88.2-88.2-88.2v88.2H190.7z"/>
<path class="st0" d="M429.1,419.2c0.1-11.1-7.1-13.2-11.9-13.2c-4.8,0-12,2.1-12,13.2v17.1H444v-6.8h-14.9V419.2z M423.5,429.5
	h-12.8v-10c0-3.6,1.3-6.7,6.4-6.7c4.9,0,6.4,3.7,6.4,6.8V429.5z"/>
<rect x="405.2" y="387.5" class="st0" width="38.7" height="6.8"/>
<path class="st0" d="M432.7,344.4c-4,0-8.4,2.4-9.9,7.5c-0.6,2-2.8,10.6-3,11.2c-0.8,2.8-2.3,4.6-5,4.6c-3.9,0-5-4-5-7.1
	c0-4.7,1.8-8,6.8-8.4v-6.8c-8.1,0-12.4,6.8-12.4,14.9c0,7,3.6,14.2,11.4,14.2c4,0,8-2,9.8-8.6c1.5-5.3,2.2-8.8,3.2-11.6
	c0.6-1.6,1.8-3.2,4.8-3.2c2.9,0,5.9,2.2,5.9,8.2c0,5.4-2.3,9.8-8.3,9.8v6.8c9.6-0.2,13.8-7.3,13.8-16.2
	C444.9,352.1,441.4,344.4,432.7,344.4"/>
<path class="st0" d="M424.6,297.5c-11.1,0-20.3,6.9-20.3,18.6c0,11.6,9.2,18.6,20.3,18.6c11.1,0,20.3-6.9,20.3-18.6
	C444.9,304.4,435.7,297.5,424.6,297.5 M424.6,327.8c-7.4,0-14.8-3.5-14.8-11.8c0-8.3,7.3-11.8,14.8-11.8c7.4,0,14.8,3.5,14.8,11.8
	C439.3,324.4,432,327.8,424.6,327.8"/>
<path class="st0" d="M415.6,268.4c3.7,0,6.5-2,7.8-5.4h0.1c1.1,4.2,4.5,6.9,9.3,6.9c7.4,0,11.9-5.7,11.9-13.4
	c0-7.7-4.5-13.4-11.9-13.4c-4.8,0-8.2,2.7-9.3,6.9h-0.1c-1.3-3.4-4.1-5.4-7.8-5.4c-6.5,0-10.4,4.3-10.4,11.8
	C405.2,264.1,409.1,268.4,415.6,268.4 M432.8,249.4c4.4,0,7.1,3.1,7.1,7.2c0,4.1-2.6,7.2-7.1,7.2c-4.2,0-6.7-3.1-6.7-7.2
	C426.1,252.5,428.6,249.4,432.8,249.4 M415.9,250.6c3.6,0,5.6,2.6,5.6,6c0,3.4-2,6-5.6,6c-3.7,0-5.8-2.7-5.8-6
	C410.1,253.3,412.2,250.6,415.9,250.6"/>
<path class="st0" d="M418.1,232.6v-6.2c-3.9,0.1-7.8-2-7.8-6.3c0-3.4,2.2-5.9,5.4-5.9c4.7,0,6.1,4.3,6,8.4h4.6
	c-0.2-4.9,0.5-9.9,6.5-9.9c4.3,0,6.8,3.1,6.8,7.3c0,4.8-3.5,7.3-8.1,7.2v6.2c7.9-0.2,13.2-4.6,13.2-13.3c0-7.3-4.4-13.5-11.6-13.5
	c-4.9,0-8.6,2.6-9.5,6.9h-0.1c-1.3-3.6-4.3-5.4-8.1-5.4c-6.7,0-10.1,6.1-10.1,12C405.2,227.7,410.7,232.3,418.1,232.6"/>
<path class="st0" d="M489.7,403.1c-10.7,0-19.4,5.2-19.4,17.1v16.1h38.7v-16.1C509.1,408.3,500.4,403.1,489.7,403.1 M503.5,429.5
	h-27.7v-6.7c0-10.6,6.1-12.9,13.8-12.9c7.8,0,13.8,2.3,13.8,12.9V429.5z"/>
<rect x="470.3" y="387.3" class="st0" width="38.7" height="6.8"/>
<path class="st0" d="M489.7,376c11.1,0,20.3-6.9,20.3-18.6c0-4.7-1.4-8-5.5-11.7l4.6-1v-4.3h-20.4v16.5h5.2v-10.3
	c6.6,0.1,10.7,3.9,10.6,10.9c0,8.3-7.3,11.8-14.8,11.8c-7.4,0-14.8-3.5-14.8-11.8c0-4.9,2.6-9.3,7.7-10v-6.6
	c-8.7,1-13.2,8.1-13.2,16.6C469.4,369.1,478.6,376,489.7,376"/>
<rect x="470.3" y="321.1" class="st0" width="38.7" height="6.8"/>
<polygon class="st0" points="476.2,299.5 509.1,299.5 509.1,292.7 476.2,292.7 476.2,280.4 470.3,280.4 470.3,311.8 476.2,311.8 "/>
<path class="st0" d="M509.1,272.7l-10.3-3.6v-15.5l10.3-3.6v-7.3l-38.7,14.9v7.2l38.7,14.9V272.7z M493.7,267.2l-16.7-5.9v-0.2
	l16.7-5.8V267.2z"/>
<polygon class="st0" points="509.1,207.3 503.2,207.3 503.2,227 470.3,227 470.3,233.8 509.1,233.8 "/>
</svg>
